<?xml version="1.0" standalone="no"?>
<!DOCTYPE svg PUBLIC "-//W3C//DTD SVG 20010904//EN"
 "http://www.w3.org/TR/2001/REC-SVG-20010904/DTD/svg10.dtd">
<svg version="1.0" xmlns="http://www.w3.org/2000/svg"
 width="350.000000pt" height="350.000000pt" viewBox="0 0 350.000000 350.000000"
 preserveAspectRatio="xMidYMid meet">
<metadata>
Created by potrace 1.11, written by Peter Selinger 2001-2013
</metadata>
<g transform="translate(0.000000,350.000000) scale(0.100000,-0.100000)"
fill="#000000" stroke="none">
<path d="M1370 3422 c-112 -9 -305 -60 -408 -108 -29 -13 -55 -24 -57 -24 -3
0 -23 -11 -45 -25 l-39 -25 -36 55 c-19 31 -35 60 -35 65 0 15 -6 13 -53 -16
-153 -96 -324 -262 -435 -422 -86 -125 -192 -361 -216 -482 -3 -14 -8 -36 -11
-50 -33 -145 -40 -386 -16 -535 15 -93 42 -208 51 -218 4 -5 66 9 136 31 71
22 170 52 219 67 50 14 101 30 115 35 14 5 57 18 96 30 l71 21 -15 52 c-10 34
-15 101 -16 194 -1 87 -5 143 -11 144 -70 9 -106 17 -113 24 -14 13 41 186 88
280 46 92 126 215 141 215 4 0 28 -19 54 -42 27 -24 51 -42 54 -40 3 2 26 22
51 46 25 23 59 52 77 64 l32 23 3 -47 c3 -45 4 -47 63 -78 179 -96 219 -116
224 -111 3 4 6 83 7 178 1 95 2 175 3 178 0 4 12 9 26 11 l25 5 0 -263 0 -264
145 0 c80 0 145 3 146 8 0 10 0 939 0 982 l-1 35 -55 -2 c-30 -2 -55 1 -55 6
0 9 -124 11 -210 3z"/>
<path d="M1820 3418 c0 -3 4 -8 8 -10 4 -1 63 -67 130 -146 67 -78 123 -141
123 -140 6 11 6 298 1 299 -31 5 -262 2 -262 -3z"/>
<path d="M2935 3407 c-17 -12 -37 -26 -46 -32 -22 -13 -203 -136 -208 -141 -2
-2 -4 -74 -4 -159 0 -85 -2 -155 -4 -155 -2 0 -17 7 -32 15 l-29 14 -32 -87
c-18 -48 -42 -107 -52 -132 l-20 -45 -166 1 c-92 1 -172 -1 -178 -3 -6 -2 -10
-18 -9 -36 2 -31 0 -33 -27 -29 -27 4 -28 3 -29 -44 -1 -40 -3 -43 -8 -20 -3
17 -5 117 -4 222 1 185 0 194 -20 217 -12 13 -39 43 -60 68 -74 84 -142 162
-178 202 l-35 39 0 -456 0 -456 143 0 144 0 -3 -32 -3 -31 84 -18 c285 -62
527 -306 577 -583 l7 -38 56 7 c31 3 67 8 81 10 28 3 116 16 142 21 22 4 24
-5 27 -131 2 -60 5 -112 7 -114 5 -5 17 -7 124 -15 41 -4 93 -9 115 -11 22 -3
69 -7 104 -10 35 -3 67 -7 71 -10 4 -3 13 1 19 8 15 19 6 314 -13 407 -20 97
-65 251 -78 268 -6 6 -8 12 -5 12 8 0 -90 197 -114 231 -10 15 -19 30 -19 34
0 3 35 6 78 5 42 -1 93 -1 112 0 l35 0 -60 56 c-33 31 -90 83 -127 115 l-68
58 -80 -1 -80 -2 -50 49 -50 49 -2 353 -3 352 -30 -22z"/>
<path d="M3030 3333 l0 -92 234 0 234 0 0 94 1 95 -235 -2 -234 -3 0 -92z"/>
<path d="M3047 3072 c-15 -3 -17 -17 -17 -97 l0 -94 43 -3 c23 -2 128 -2 234
0 l192 3 -1 97 0 97 -217 0 c-120 0 -225 -1 -234 -3z"/>
<path d="M1910 2173 c-49 -8 -156 -46 -210 -77 -70 -38 -177 -145 -217 -216
-122 -216 -104 -483 46 -670 174 -219 458 -291 716 -180 146 63 270 200 326
360 28 82 35 247 13 330 -52 201 -203 361 -404 430 -62 21 -202 33 -270 23z"/>
<path d="M995 1109 c-99 -37 -190 -73 -203 -79 l-24 -10 42 -78 c80 -147 193
-287 325 -399 53 -45 218 -156 247 -165 6 -2 -2 -29 -21 -66 -17 -34 -31 -65
-31 -70 0 -8 5 -10 130 -61 71 -28 195 -64 265 -76 17 -2 41 -7 55 -11 14 -3
97 -7 185 -9 228 -6 396 24 603 106 87 35 242 119 249 135 3 8 -156 260 -221
351 l-16 22 -74 -40 c-147 -79 -330 -129 -474 -129 l-63 0 4 150 4 150 -28 0
c-43 0 -160 27 -220 50 -78 31 -176 92 -238 151 l-54 50 -46 -43 c-25 -24 -49
-47 -53 -53 -10 -13 -53 40 -122 153 -14 23 -30 42 -34 41 -4 -1 -88 -32 -187
-70z"/>
</g>
</svg>
