<svg
  stroke-width="0"
  viewBox="0 0 324.09039 135.1992"
  version="1.1"
  width="162.0452"
  height="67.599602"
  xmlns="http://www.w3.org/2000/svg"
>
  <path
    fill="#333333"
    d="M 38,0.04117838 0,23.213054 v 4.029297 25.1875 H 38 V 24.220867 Z m 7,0 V 135.04119 H 84 V 0.04117838 Z M 0,61.496257 v 31.232422 2.013672 2.015627 L 38,115.89861 V 94.742351 92.728679 61.496257 Z"
  />
  <path
    fill="#333333"
    d="M 97.551316,0.04117868 135.65093,44.482589 v -3.44922 l -0.0996,-40.99219032 z m 0,14.78125032 0.0996,120.119141 35.900394,0.0937 v 0.006 h 2 V 59.164319 Z m 49.000004,80.80273 v 38.429691 0.88672 0.0996 h 59 v -0.0996 -0.88672 -38.332031 -0.0977 h -58 -1 z"
  />
  <path
    fill="#333333"
    d="m 255.0904,0 -38,26.798828 h 0.0996 v 68.499995 h 38 V 26.798828 h -0.0996 v -1 z m 8,0 v 25.898438 h 61 V 0 Z m 0,48 v 26.099609 h 61 V 48 Z m -46,58.19921 v 28.80078 h 73 1 l 33,0.19922 -32,-27.92774 v -0.0723 h -0.082 l -0.91797,-0.80074 v -0.19922 z"
  />
</svg>
